<svg width="1100" height="360" viewBox="0 0 1100 360" fill="none" xmlns="http://www.w3.org/2000/svg">
  <style>
    .node { fill: #111827; stroke: #2f3b46; stroke-width: 1.5; }
    .hot { fill: #13251f; stroke: #8be9d6; stroke-width: 2; }
    .text { font: 600 18px 'JetBrains Mono', Consolas, monospace; fill: #d7fff2; }
    .sub { font: 500 13px 'JetBrains Mono', Consolas, monospace; fill: #96a7b5; }
    .edge { stroke: #8be9d6; stroke-width: 3; stroke-linecap: round; stroke-dasharray: 7 10; animation: flow 16s linear infinite; }
    @keyframes flow {
      to { stroke-dashoffset: -220; }
    }
  </style>
  <rect width="1100" height="360" rx="24" fill="#0d1117"/>
  <text x="44" y="46" class="text">system thinking loop</text>
  <text x="44" y="72" class="sub">from business context to AI-ready workflows</text>

  <path d="M190 170H372M508 170H690M826 170H948" class="edge"/>
  <path d="M550 214V282H220V214" class="edge"/>

  <g>
    <rect x="72" y="124" width="170" height="90" rx="18" class="hot"/>
    <text x="103" y="162" class="text">problem</text>
    <text x="101" y="188" class="sub">business context</text>
  </g>
  <g>
    <rect x="326" y="124" width="190" height="90" rx="18" class="node"/>
    <text x="365" y="162" class="text">domain</text>
    <text x="356" y="188" class="sub">entities + rules</text>
  </g>
  <g>
    <rect x="626" y="124" width="190" height="90" rx="18" class="node"/>
    <text x="672" y="162" class="text">backend</text>
    <text x="663" y="188" class="sub">API + services</text>
  </g>
  <g>
    <rect x="900" y="124" width="150" height="90" rx="18" class="hot"/>
    <text x="943" y="162" class="text">data</text>
    <text x="929" y="188" class="sub">PostgreSQL</text>
  </g>
  <g>
    <rect x="450" y="252" width="210" height="76" rx="18" class="hot"/>
    <text x="492" y="291" class="text">AI workflow</text>
    <text x="493" y="314" class="sub">better decisions</text>
  </g>
</svg>
