<svg width="900" height="96" viewBox="0 0 900 96" fill="none" xmlns="http://www.w3.org/2000/svg">
  <style>
    .tile { fill: #111827; stroke: #2f3b46; stroke-width: 1.4; }
    .txt { font: 700 15px 'JetBrains Mono', Consolas, monospace; fill: #d7fff2; }
    .tiny { font: 600 10px 'JetBrains Mono', Consolas, monospace; fill: #9fb7c4; }
    .cyan { fill: #8be9d6; }
    .green { fill: #a7f3d0; }
    .blue { fill: #61dafb; }
    .yellow { fill: #ffd166; }
    .orange { fill: #ff8a65; }
    .pulse { animation: pulse 3.2s ease-in-out infinite; transform-origin: center; }
    @keyframes pulse {
      0%, 100% { opacity: .9; transform: translateY(0); }
      50% { opacity: 1; transform: translateY(-2px); }
    }
  </style>

  <rect width="900" height="96" rx="22" fill="#0d1117"/>

  <g class="pulse" transform="translate(18 14)">
    <rect class="tile" width="68" height="68" rx="16"/>
    <path d="M24 21h20a9 9 0 0 1 9 9v5H33a8 8 0 0 0-8 8v4h-8V30a9 9 0 0 1 7-9Z" fill="#3776AB"/>
    <path d="M44 47H24a9 9 0 0 1-9-9v-5h20a8 8 0 0 0 8-8v-4h8v17a9 9 0 0 1-7 9Z" fill="#FFD43B"/>
    <circle cx="42" cy="27" r="2" fill="#fff"/>
    <text x="17" y="61" class="tiny">Python</text>
  </g>

  <g class="pulse" transform="translate(102 14)">
    <rect class="tile" width="68" height="68" rx="16"/>
    <circle cx="34" cy="31" r="21" fill="#009688"/>
    <path d="M38 13 24 35h12l-6 20 16-25H34l4-17Z" fill="#fff"/>
    <text x="14" y="61" class="tiny">FastAPI</text>
  </g>

  <g class="pulse" transform="translate(186 14)">
    <rect class="tile" width="68" height="68" rx="16"/>
    <ellipse cx="34" cy="30" rx="21" ry="18" fill="#336791"/>
    <path d="M25 31c2 9 14 9 18 2M28 24h.1M42 24h.1M47 39l7 8" stroke="#fff" stroke-width="3" stroke-linecap="round"/>
    <text x="8" y="61" class="tiny">Postgres</text>
  </g>

  <g class="pulse" transform="translate(270 14)">
    <rect class="tile" width="68" height="68" rx="16"/>
    <circle cx="34" cy="32" r="4" class="blue"/>
    <ellipse cx="34" cy="32" rx="26" ry="9" stroke="#61dafb" stroke-width="3"/>
    <ellipse cx="34" cy="32" rx="26" ry="9" stroke="#61dafb" stroke-width="3" transform="rotate(60 34 32)"/>
    <ellipse cx="34" cy="32" rx="26" ry="9" stroke="#61dafb" stroke-width="3" transform="rotate(120 34 32)"/>
    <text x="20" y="61" class="tiny">React</text>
  </g>

  <g class="pulse" transform="translate(354 14)">
    <rect class="tile" width="68" height="68" rx="16"/>
    <rect x="16" y="15" width="36" height="36" rx="8" fill="#3178C6"/>
    <text x="25" y="39" class="txt">TS</text>
    <text x="8" y="61" class="tiny">TypeScript</text>
  </g>

  <g class="pulse" transform="translate(438 14)">
    <rect class="tile" width="68" height="68" rx="16"/>
    <path d="M15 33c8-16 18-16 30-5 7 6 13 5 18-3-8 16-18 16-30 5-7-6-13-5-18 3Z" fill="#38BDF8"/>
    <path d="M15 47c8-16 18-16 30-5 7 6 13 5 18-3-8 16-18 16-30 5-7-6-13-5-18 3Z" fill="#8be9d6"/>
    <text x="11" y="61" class="tiny">Tailwind</text>
  </g>

  <g class="pulse" transform="translate(522 14)">
    <rect class="tile" width="68" height="68" rx="16"/>
    <path d="M17 36h40c-2 12-10 19-22 19-11 0-18-7-18-19Z" fill="#2496ED"/>
    <rect x="20" y="25" width="8" height="8" fill="#d7fff2"/><rect x="30" y="25" width="8" height="8" fill="#d7fff2"/><rect x="40" y="25" width="8" height="8" fill="#d7fff2"/>
    <rect x="30" y="15" width="8" height="8" fill="#d7fff2"/>
    <text x="17" y="61" class="tiny">Docker</text>
  </g>

  <g class="pulse" transform="translate(606 14)">
    <rect class="tile" width="68" height="68" rx="16"/>
    <text x="17" y="35" class="txt" fill="#fff">aws</text>
    <path d="M18 44c15 8 31 7 45-2" stroke="#FF9900" stroke-width="4" stroke-linecap="round"/>
    <text x="25" y="61" class="tiny">Cloud</text>
  </g>

  <g class="pulse" transform="translate(690 14)">
    <rect class="tile" width="68" height="68" rx="16"/>
    <rect x="17" y="17" width="34" height="34" rx="7" fill="#F05032" transform="rotate(45 34 34)"/>
    <circle cx="27" cy="27" r="4" fill="#fff"/><circle cx="42" cy="42" r="4" fill="#fff"/><circle cx="42" cy="26" r="4" fill="#fff"/>
    <path d="M30 30 39 39M31 27h7" stroke="#fff" stroke-width="3" stroke-linecap="round"/>
    <text x="25" y="61" class="tiny">Git</text>
  </g>

  <g class="pulse" transform="translate(774 14)">
    <rect class="tile" width="68" height="68" rx="16"/>
    <circle cx="34" cy="30" r="20" fill="#f0f6fc"/>
    <path d="M24 50c2-5 6-7 10-7s8 2 10 7" stroke="#0d1117" stroke-width="4" stroke-linecap="round"/>
    <circle cx="27" cy="28" r="3" fill="#0d1117"/><circle cx="41" cy="28" r="3" fill="#0d1117"/>
    <text x="17" y="61" class="tiny">GitHub</text>
  </g>
</svg>
